<?xml version="1.0" standalone="no"?>
<!DOCTYPE svg PUBLIC "-//W3C//DTD SVG 20010904//EN"
 "http://www.w3.org/TR/2001/REC-SVG-20010904/DTD/svg10.dtd">
<svg version="1.0" xmlns="http://www.w3.org/2000/svg"
 width="180.000000pt" height="180.000000pt" viewBox="0 0 180.000000 180.000000"
 preserveAspectRatio="xMidYMid meet">

<g transform="translate(0.000000,180.000000) scale(0.100000,-0.100000)"
fill="#000000" stroke="none">
<path d="M0 900 l0 -900 900 0 900 0 0 900 0 900 -900 0 -900 0 0 -900z m1023
436 c46 -20 73 -42 97 -81 21 -34 23 -43 22 -133 -2 -100 -61 -181 -154 -211
-21 -7 -38 -15 -38 -17 0 -3 15 -18 33 -33 18 -16 39 -42 47 -58 8 -15 18 -30
21 -33 18 -14 70 -134 64 -148 -3 -9 -3 -13 1 -9 4 4 22 -18 40 -48 41 -67 69
-99 109 -120 30 -16 30 -16 -35 -14 -50 1 -70 6 -88 23 -13 11 -58 93 -102
181 -93 188 -149 256 -217 263 l-33 4 0 -179 c0 -179 9 -243 38 -275 14 -17
10 -18 -73 -18 l-89 0 21 20 c33 30 38 88 38 460 0 371 -6 422 -48 441 -15 6
32 8 143 5 123 -3 175 -8 203 -20z"/>
<path d="M790 1130 l0 -220 46 0 c80 0 134 20 180 65 35 35 43 51 52 104 15
86 0 161 -43 207 -18 18 -30 36 -29 39 2 3 1 3 -2 1 -3 -3 -27 2 -52 10 -26 7
-71 14 -99 14 l-53 0 0 -220z"/>
</g>
</svg>
